{"title":"Dead.Man.Running.2009.Dvdrip.Xvid.ISWE-RG","uid":5358594,"size":735149279,"categoryP":"video","categoryS":"movies","magnet":"?xt=urn:btih:92eea41611390dcaa58845d48199e6774eee162b&amp;dn=Dead.Man.Running.2009.Dvdrip.Xvid.ISWE-RG&amp;tr=udp%3A%2F%2Ftracker.openbittorrent.com%3A80&amp;tr=udp%3A%2F%2Fopen.demonii.com%3A1337&amp;tr=udp%3A%2F%2Ftracker.coppersurfer.tk%3A6969&amp;tr=udp%3A%2F%2Fexodus.desync.com%3A6969","seeders":1,"leechers":0,"uploader":".BONE.","files":-1,"time":1266025881,"description":"General\nComplete name : K:Dead.Man.Running.2009.Dvdrip.Xvid.ISWE-RGDead.Man.Running.2009.Dvdrip.Xvid.ISWE-RGDead.Man.Running.2009.Dvdrip.Xvid.ISWE-RG.avi\nFormat : AVI\nFormat/Info : Audio Video Interleave\nFile size : 701 MiB\nDuration : 1h 27mn\nOverall bit rate : 1 116 Kbps\nWriting application : VirtualDubMod 1.5.4.1 (build 2178/release)\nWriting library : VirtualDubMod build 2178/release\n\nVideo\nID : 0\nFormat : MPEG-4 Visual\nFormat profile : AdvancedSimple@L5\nFormat settings, BVOP : Yes\nFormat settings, QPel : No\nFormat settings, GMC : No warppoints\nFormat settings, Matrix : Custom\nCodec ID : XVID\nCodec ID/Hint : XviD\nDuration : 1h 27mn\nBit rate : 990 Kbps\nWidth : 720 pixels\nHeight : 400 pixels\nDisplay aspect ratio : 16:9\nFrame rate : 25.000 fps\nResolution : 24 bits\nColorimetry : 4:2:0\nScan type : Progressive\nBits/(Pixel*Frame) : 0.138\nStream size : 622 MiB (89%)\nWriting library : XviD 1.2.1 (UTC 2008-12-04)\n\nAudio\nID : 1\nFormat : MPEG Audio\nFormat version : Version 1\nFormat profile : Layer 3\nCodec ID : 55\nCodec ID/Hint : MP3\nDuration : 1h 27mn\nBit rate mode : Variable\nBit rate : 113 Kbps\nNominal bit rate : 128 Kbps\nChannel(s) : 2 channels\nSampling rate : 48.0 KHz\nResolution : 16 bits\nStream size : 71.0 MiB (10%)\nAlignment : Aligned on interleaves\nInterleave, duration : 24 ms (0.60 video frame)\nInterleave, preload duration : 484 ms\nWriting library : LAME3.98r\nEncoding settings : -m j -V 4 -q 2 -lowpass 17 --abr 128\nLanguage : English &lt;a href=&quot;\nhttp://www.imdb.com/title/tt1311699/&quot; rel=&quot;nofollow&quot; target=&quot;_NEW&quot;&gt;\nhttp://www.imdb.com/title/tt1311699/&lt;/a&gt;","torrent":{"xt":"urn:btih:92eea41611390dcaa58845d48199e6774eee162b","amp;dn":"Dead.Man.Running.2009.Dvdrip.Xvid.ISWE-RG","amp;tr":["udp%3A%2F%2Ftracker.openbittorrent.com%3A80","udp%3A%2F%2Fopen.demonii.com%3A1337","udp%3A%2F%2Ftracker.coppersurfer.tk%3A6969","udp%3A%2F%2Fexodus.desync.com%3A6969"],"infoHash":"92eea41611390dcaa58845d48199e6774eee162b","infoHashBuffer":{"type":"Buffer","data":[146,238,164,22,17,57,13,202,165,136,69,212,129,153,230,119,78,238,22,43]},"announce":[],"urlList":[]}}